<?xml version="1.0" standalone="no"?>
<!DOCTYPE svg PUBLIC "-//W3C//DTD SVG 20010904//EN"
 "http://www.w3.org/TR/2001/REC-SVG-20010904/DTD/svg10.dtd">
<svg version="1.0" xmlns="http://www.w3.org/2000/svg"
 width="512.000000pt" height="512.000000pt" viewBox="0 0 512.000000 512.000000"
 preserveAspectRatio="xMidYMid meet">
<metadata>
Created by potrace 1.14, written by Peter Selinger 2001-2017
</metadata>
<g transform="translate(0.000000,512.000000) scale(0.100000,-0.100000)"
fill="#000000" stroke="none">
<path d="M355 5044 c-72 -19 -128 -51 -180 -103 -51 -51 -101 -144 -110 -206
-6 -40 -8 -1517 -2 -1545 29 -141 130 -255 263 -300 60 -20 79 -21 820 -21
418 0 773 3 789 6 48 9 147 61 186 97 51 47 87 107 108 176 17 56 19 114 19
803 0 481 -3 762 -10 794 -21 101 -91 202 -172 250 -104 61 -60 58 -896 60
-589 1 -776 -2 -815 -11z"/>
<path d="M3175 5045 c-143 -33 -257 -148 -291 -292 -9 -38 -12 -248 -12 -792
0 -799 0 -806 53 -896 58 -97 158 -170 262 -190 15 -3 369 -5 787 -6 741 0
759 1 820 21 120 40 208 130 247 250 20 63 20 84 21 805 0 407 -3 760 -7 785
-9 66 -57 159 -111 212 -44 44 -123 91 -176 105 -46 12 -1541 10 -1593 -2z"/>
<path d="M422 2275 c-31 -6 -79 -22 -107 -35 -98 -47 -190 -167 -209 -270 -5
-28 -9 -320 -7 -443 1 -19 10 -33 29 -45 l27 -17 0 -237 c0 -168 -3 -238 -11
-238 -6 0 -19 -9 -28 -19 -15 -17 -17 -47 -17 -282 0 -200 4 -275 15 -311 42
-142 157 -246 301 -275 32 -7 327 -10 805 -9 670 2 760 4 797 19 140 53 227
149 258 283 9 37 13 250 13 793 0 802 -1 806 -54 898 -50 86 -142 156 -243
183 -58 15 -1485 20 -1569 5z"/>
<path d="M3247 2254 c-1 -1 -24 -4 -52 -8 -143 -17 -296 -157 -323 -295 -8
-46 -9 -1535 0 -1580 12 -63 67 -157 116 -201 26 -24 76 -57 112 -74 l65 -30
790 0 c781 0 791 0 843 21 103 42 184 123 228 230 l23 58 1 776 c0 743 -1 778
-19 832 -53 152 -180 253 -334 264 -61 4 -1445 11 -1450 7z"/>
</g>
</svg>
